<svg xmlns="http://www.w3.org/2000/svg" viewBox="0 0 106.12 56.28"><defs><style>.cls-1{fill:#fff;}.cls-2{fill:#0eacdb;}</style></defs><title>logo_1</title><g id="Слой_2" data-name="Слой 2"><g id="OBJECTS"><path class="cls-1" d="M58,2.47a10.62,10.62,0,0,0-12.33-.92,10.63,10.63,0,0,1,1.3.92l55.4,37.13Z"/><path class="cls-2" d="M56.14,1.23A10.62,10.62,0,0,0,44.37,2.47L0,39.6H9.89L54.26,2.47A10.61,10.61,0,0,1,56.14,1.23Z"/><path class="cls-1" d="M37.76,19.46,13.69,39.6h9.89l31-26h-.81A25,25,0,0,0,37.76,19.46Z"/><rect class="cls-1" x="53.71" y="26.62" width="3.42" height="3.42"/><rect class="cls-1" x="58.83" y="26.62" width="3.42" height="3.42"/><rect class="cls-1" x="53.71" y="31.64" width="3.42" height="3.42"/><rect class="cls-1" x="58.83" y="31.64" width="3.42" height="3.42"/><path class="cls-1" d="M.78,40.93s15.48,11.91,56.35,3.82c35.34-6.43,42.17-5,49-.5a142.65,142.65,0,0,0-49,7.53C37.65,57,18.72,61.81.78,40.93Z"/></g></g></svg>